<svg xmlns="http://www.w3.org/2000/svg" viewBox="0 0 26 26.75"><defs><style>.cls-1,.cls-3{fill:#007bfd;}.cls-2{fill:#fff;stroke:#ddd;}.cls-2,.cls-3{stroke-miterlimit:10;}.cls-3{stroke:#007bfd;}</style></defs><title>Asset 5</title><g id="Layer_2" data-name="Layer 2"><g id="Layer_1-2" data-name="Layer 1"><rect class="cls-1" x="17" width="4" height="8" rx="2" ry="2"/><rect class="cls-1" x="5" width="4" height="8" rx="2" ry="2"/><path class="cls-2" d="M.5,11.25h25a0,0,0,0,1,0,0v12a3,3,0,0,1-3,3H3.5a3,3,0,0,1-3-3v-12A0,0,0,0,1,.5,11.25Z"/><rect class="cls-1" x="19" y="19.75" width="3" height="3" rx="1" ry="1"/><path class="cls-3" d="M3.5,4h19a3,3,0,0,1,3,3v5a0,0,0,0,1,0,0H.5a0,0,0,0,1,0,0V7A3,3,0,0,1,3.5,4Z"/></g></g></svg>