<svg xmlns="http://www.w3.org/2000/svg" viewBox="0 0 60 60"><defs><style>.cls-1{fill:#fff;}.cls-2{fill:#ddd;}.cls-3{opacity:0.1;}.cls-4{fill:#fa555f;}.cls-5{fill:none;stroke:#fa555f;stroke-linecap:round;stroke-miterlimit:10;}</style></defs><title>Asset 1</title><g id="Layer_2" data-name="Layer 2"><g id="Layer_1-2" data-name="Layer 1"><path class="cls-1" d="M30,59.5A29.5,29.5,0,1,1,59.5,30,29.53,29.53,0,0,1,30,59.5Z"/><path class="cls-2" d="M30,1A29,29,0,1,1,1,30,29,29,0,0,1,30,1m0-1A30,30,0,1,0,60,30,30,30,0,0,0,30,0Z"/><g class="cls-3"><circle class="cls-4" cx="30" cy="30" r="25"/></g><path class="cls-5" d="M.5,30A29.5,29.5,0,1,0,30,.5"/><path class="cls-4" d="M20.5,20.88h19a3,3,0,0,1,3,3v5a0,0,0,0,1,0,0h-25a0,0,0,0,1,0,0v-5A3,3,0,0,1,20.5,20.88Z"/><rect class="cls-1" x="34" y="16.88" width="4" height="8" rx="2" ry="2"/><rect class="cls-1" x="22" y="16.88" width="4" height="8" rx="2" ry="2"/><path class="cls-1" d="M17.5,28.13h25a0,0,0,0,1,0,0v12a3,3,0,0,1-3,3h-19a3,3,0,0,1-3-3v-12A0,0,0,0,1,17.5,28.13Z"/><rect class="cls-2" x="21" y="31.63" width="3" height="3" rx="1" ry="1"/><rect class="cls-2" x="26" y="31.63" width="3" height="3" rx="1" ry="1"/><rect class="cls-2" x="31" y="31.63" width="3" height="3" rx="1" ry="1"/><rect class="cls-2" x="36" y="31.63" width="3" height="3" rx="1" ry="1"/><rect class="cls-2" x="21" y="36.63" width="3" height="3" rx="1" ry="1"/><rect class="cls-2" x="26" y="36.63" width="3" height="3" rx="1" ry="1"/><rect class="cls-2" x="31" y="36.63" width="3" height="3" rx="1" ry="1"/><rect class="cls-4" x="36" y="36.63" width="3" height="3" rx="1" ry="1"/></g></g></svg>