<svg xmlns="http://www.w3.org/2000/svg" viewBox="0 0 60 60"><defs><style>.cls-1{fill:#fff;}.cls-2{fill:#ddd;}.cls-3{opacity:0.1;}.cls-4{fill:#fea15b;}.cls-5{fill:none;stroke:#fea15b;stroke-linecap:round;stroke-miterlimit:10;}.cls-6{fill:#ea8d47;}</style></defs><title>Asset 4</title><g id="Layer_2" data-name="Layer 2"><g id="Layer_1-2" data-name="Layer 1"><path class="cls-1" d="M30,59.5A29.5,29.5,0,1,1,59.5,30,29.53,29.53,0,0,1,30,59.5Z"/><path class="cls-2" d="M30,1A29,29,0,1,1,1,30,29,29,0,0,1,30,1m0-1A30,30,0,1,0,60,30,30,30,0,0,0,30,0Z"/><g class="cls-3"><circle class="cls-4" cx="30" cy="30" r="25"/></g><path class="cls-5" d="M.5,30A29.5,29.5,0,1,0,30,.5"/><path class="cls-4" d="M27.5,19.25h5a7.5,7.5,0,0,1,7.5,7.5v8.5a2,2,0,0,1-2,2H22a2,2,0,0,1-2-2v-8.5A7.5,7.5,0,0,1,27.5,19.25Z"/><rect class="cls-6" x="17.5" y="35.75" width="25" height="5" rx="2" ry="2"/></g></g></svg>