<svg xmlns="http://www.w3.org/2000/svg" viewBox="0 0 60 60"><defs><style>.cls-1{fill:#fff;}.cls-2{fill:#ddd;}.cls-3{opacity:0.1;}.cls-4{fill:#2fc195;}.cls-5{fill:none;stroke:#2fc195;stroke-linecap:round;stroke-miterlimit:10;}</style></defs><title>Asset 3</title><g id="Layer_2" data-name="Layer 2"><g id="Layer_1-2" data-name="Layer 1"><path class="cls-1" d="M30,59.5A29.5,29.5,0,1,1,59.5,30,29.53,29.53,0,0,1,30,59.5Z"/><path class="cls-2" d="M30,1A29,29,0,1,1,1,30,29,29,0,0,1,30,1m0-1A30,30,0,1,0,60,30,30,30,0,0,0,30,0Z"/><g class="cls-3"><circle class="cls-4" cx="30" cy="30" r="25"/></g><path class="cls-5" d="M.5,30A29.5,29.5,0,1,0,30,.5"/><path class="cls-4" d="M30,17.5c5.38,0,9.34,6.08,5.38,11.74a2.51,2.51,0,0,1-.61.61c-5.67,4-11.75,0-11.75-5.37a7,7,0,0,1,7-7"/><path class="cls-4" d="M37.32,31.88a2.52,2.52,0,0,0-2.83-.12,8.54,8.54,0,0,1-9,0,2.52,2.52,0,0,0-2.83.12,13.2,13.2,0,0,0-4.91,7.55,2.51,2.51,0,0,0,2.46,3.06H39.77a2.51,2.51,0,0,0,2.46-3.06A13.19,13.19,0,0,0,37.32,31.88Z"/></g></g></svg>